<svg width="177" height="170" viewBox="0 0 177 170" fill="none" xmlns="http://www.w3.org/2000/svg">
<path d="M176.696 169.338L156.133 105.23V0.686523H21.81V102.914L0.852295 169.338H176.696ZM11.3311 161.565L27.803 108.763H149.781L166.612 161.565H11.3311ZM28.9155 8.45957H148.633V100.558H28.9155V8.45957Z" fill="#FCE300"/>
<path d="M49.4783 57.5711L77.1825 70.6832V64.9516L55.1124 54.7445L77.5414 44.8908V39.1592L49.4783 52.2713V57.5711Z" fill="#FCE300"/>
<path d="M80.5559 78.4562H84.647L96.992 30.5616H92.9009L80.5559 78.4562Z" fill="#FCE300"/>
<path d="M100.007 44.8908L122.077 54.7445L100.007 64.9516V70.6832L128.07 57.5711V52.2713L100.007 39.1592V44.8908Z" fill="#FCE300"/>
</svg>
