<svg width="230" height="198" viewBox="0 0 230 198" fill="none" xmlns="http://www.w3.org/2000/svg">
<path d="M222.518 161.709L181.355 126.145L187.983 120.419L182.756 115.903L176.128 121.629L166.909 113.665C173.951 102.682 177.976 90.0645 177.976 76.6452C177.976 34.3849 138.177 0 89.2617 0C40.3467 0 0.547119 34.3849 0.547119 76.6452C0.547119 118.905 40.3467 153.29 89.2617 153.29C104.794 153.29 119.399 149.813 132.111 143.729L141.33 151.694L134.702 157.42L139.929 161.935L146.557 156.209L187.72 191.773C192.37 195.79 198.547 198 205.119 198C218.689 198 229.727 188.464 229.727 176.741C229.727 171.059 227.169 165.726 222.518 161.709ZM26.1043 120.834C14.7562 108.756 7.94 93.3794 7.94 76.6452C7.94 37.9042 44.4202 6.3871 89.2617 6.3871C134.103 6.3871 170.583 37.9042 170.583 76.6452C170.583 93.3794 163.767 108.756 152.423 120.837C150.867 119.116 149.1 117.558 147.152 116.194C157.498 104.918 163.191 91.0576 163.191 76.6452C163.191 42.4806 131.959 14.5785 92.8805 12.9339C92.1486 12.8796 91.413 12.8604 90.6738 12.8381C90.2006 12.8285 89.7386 12.7742 89.2617 12.7742C89.0695 12.7742 88.8847 12.7965 88.6925 12.7997C87.5096 12.8093 86.323 12.8636 85.1328 12.9562C46.2906 14.8245 15.3329 42.6307 15.3329 76.6452C15.3329 91.0576 21.0254 104.918 31.3754 116.191C29.4237 117.558 27.6605 119.113 26.1043 120.834ZM89.2617 57.4839C69.6003 57.4839 61.2057 54.5714 61.1466 54.549L55.9937 52.6424V64.8961C53.0033 59.5277 51.7502 53.4887 52.5376 47.4082C54.3451 33.4077 67.3049 21.697 83.3548 19.5573C84.1902 19.4455 85.0219 19.3721 85.8536 19.3114C86.6631 19.2763 87.4652 19.2156 88.2822 19.2028C89.2285 19.1836 90.1673 19.1964 91.1025 19.2411C91.5165 19.2507 91.9232 19.2795 92.3372 19.2954C104.905 20.2311 116.253 26.615 122.156 36.5821L123.188 38.3226H125.446C127.915 38.3226 129.923 40.0567 129.923 42.19V54.2903C129.923 60.8818 127.232 67.2434 122.526 72.3083L122.508 52.7159L117.399 54.5394C117.318 54.5714 108.923 57.4839 89.2617 57.4839ZM115.137 61.7441V76.6452C115.137 88.9691 103.526 99 89.2617 99C74.9972 99 63.3866 88.9691 63.3866 76.6452V61.7441C68.2179 62.7181 76.6088 63.871 89.2617 63.871C101.915 63.871 110.306 62.7181 115.137 61.7441ZM45.189 46.6961C43.7881 57.5094 47.7507 68.2078 55.9937 76.3194V76.6452C55.9937 85.1304 60.2964 92.7438 67.0831 98.0068V106.039L44.8194 110.481C42.3095 110.979 39.9105 111.749 37.6372 112.716C28.0302 102.481 22.7258 89.8249 22.7258 76.6452C22.7258 56.1362 35.2604 38.1533 54.0198 27.9755C49.2662 33.3534 46.0799 39.782 45.189 46.6961ZM70.1585 111.982L83.3031 118.794L75.0526 125.922L65.0796 112.994L70.1585 111.982ZM74.476 106.773V102.353C78.9376 104.276 83.9462 105.387 89.2617 105.387C94.5772 105.387 99.5859 104.279 104.047 102.353V106.77L89.2617 114.434L74.476 106.773ZM108.365 111.982L113.448 112.994L103.475 125.922L95.2241 118.794L108.365 111.982ZM111.44 106.039V98.0068C116.845 93.8169 120.648 88.1387 121.979 81.7101C131.582 75.0867 137.315 64.9344 137.315 54.2903V42.19C137.315 37.224 133.209 33.0724 127.775 32.1335C126.825 30.6932 125.757 29.3391 124.618 28.0394C143.315 38.2268 155.798 56.1809 155.798 76.6452C155.798 89.8249 150.493 102.481 140.886 112.716C138.613 111.749 136.214 110.982 133.704 110.481L111.44 106.039ZM89.2617 146.903C66.4805 146.903 45.8729 138.76 31.0945 125.676C34.7466 121.17 40.2247 117.951 46.4791 116.705L57.3762 114.533L73.903 135.949L89.2617 122.677L104.62 135.946L121.147 114.53L132.044 116.702C138.295 117.947 143.777 121.17 147.429 125.673C132.651 138.76 112.043 146.903 89.2617 146.903ZM138.606 140.305C148.213 134.729 156.496 127.573 162.95 119.273L170.901 126.142L146.557 147.178L138.606 140.305ZM151.783 151.694L176.128 130.661L183.839 137.323L159.494 158.355L151.783 151.694ZM205.119 191.613C200.521 191.613 196.2 190.067 192.947 187.257L164.721 162.871L189.066 141.838L217.292 166.224C220.545 169.035 222.334 172.768 222.334 176.741C222.334 184.942 214.612 191.613 205.119 191.613Z" fill="#FCE300"/>
</svg>
