<svg width="173" height="200" viewBox="0 0 173 200" fill="none" xmlns="http://www.w3.org/2000/svg">
<path d="M53.0183 96.0889C51.6966 102.393 46.3049 107.127 39.8702 107.127C38.1546 107.127 36.7638 108.577 36.7638 110.367C36.7638 112.157 38.1546 113.607 39.8702 113.607C49.7169 113.607 57.8961 106.023 59.3225 96.1615C65.3513 95.4816 70.9166 92.6798 75.2249 88.0937C76.4256 86.8155 76.4053 84.7641 75.1798 83.5122C73.9546 82.2608 71.9877 82.2807 70.787 83.5589C66.977 87.615 61.8809 89.8487 56.4373 89.8487C45.3609 89.8487 36.3497 80.4505 36.3497 68.8984C36.3497 67.1088 34.9588 65.6587 33.2433 65.6587C31.5278 65.6587 30.137 67.1088 30.137 68.8984C30.137 82.8142 40.1265 94.3343 53.0183 96.0889Z" fill="#FCE300"/>
<path d="M66.1706 124.19C66.1706 122.4 64.7798 120.95 63.0642 120.95C48.5622 120.95 36.7638 133.255 36.7638 148.38C36.7638 148.536 36.7692 148.693 36.7717 148.85C35.6166 148.688 34.4403 148.596 33.2433 148.596C31.5278 148.596 30.137 150.046 30.137 151.836C30.137 153.625 31.5278 155.076 33.2433 155.076C44.3197 155.076 53.331 164.474 53.331 176.026C53.331 177.816 54.7218 179.266 56.4374 179.266C58.1529 179.266 59.5437 177.816 59.5437 176.026C59.5437 164.531 52.7255 154.671 43.0879 150.597C43.0142 149.863 42.9765 149.121 42.9765 148.38C42.9765 136.828 51.9878 127.43 63.0642 127.43C64.7798 127.43 66.1706 125.98 66.1706 124.19Z" fill="#FCE300"/>
<path d="M172.201 96.5443C172.201 89.1685 169.376 82.1788 164.383 77.0384C165.174 74.4 165.574 71.6708 165.574 68.8985C165.574 55.562 156.399 44.4238 144.287 41.9745C145.213 39.568 145.693 36.9883 145.693 34.3413C145.693 25.8933 140.771 18.6233 133.762 15.4812C122.085 5.78099 109.312 0 99.5122 0C94.0645 0 89.2335 2.79395 86.2584 7.07732C83.2834 2.79395 78.4524 0 73.0047 0C63.2044 0 50.4323 5.78099 38.7545 15.4812C31.7453 18.6233 26.8237 25.8933 26.8237 34.3413C26.8237 36.9883 27.3037 39.568 28.2294 41.9745C16.1179 44.4238 6.94304 55.562 6.94304 68.8985C6.94304 71.6708 7.34272 74.3996 8.1338 77.0384C3.14087 82.1788 0.316162 89.1685 0.316162 96.5443C0.316162 102.31 2.03459 107.663 4.96036 112.084C1.91987 116.668 0.316162 122.016 0.316162 127.646C0.316162 137.619 5.52944 146.757 13.7836 151.575C13.6416 152.807 13.5699 154.05 13.5699 155.292C13.5699 168.745 21.984 180.639 34.1919 184.692C39.5021 194.171 49.1749 200 59.7509 200C71.3459 200 81.3997 193.01 86.2584 182.862C91.1172 193.01 101.171 200 112.766 200C123.342 200 133.015 194.171 138.325 184.692C150.533 180.638 158.947 168.744 158.947 155.292C158.947 154.05 158.875 152.807 158.733 151.575C166.987 146.757 172.201 137.619 172.201 127.646C172.201 122.016 170.597 116.668 167.556 112.084C170.482 107.663 172.201 102.31 172.201 96.5443ZM59.7509 193.521C51.0411 193.521 43.1046 188.512 39.0382 180.451C38.6352 179.652 37.9319 179.065 37.0965 178.831C26.9023 175.969 19.7826 166.29 19.7826 155.292C19.7826 153.646 19.9416 151.997 20.2552 150.391C20.5459 148.902 19.805 147.402 18.4734 146.784C11.2174 143.42 6.52886 135.908 6.52886 127.646C6.52886 123.888 7.46324 120.296 9.24629 117.115C13.8834 121.379 19.9632 123.974 26.6166 123.974C28.3321 123.974 29.7229 122.524 29.7229 120.734C29.7229 118.945 28.3321 117.495 26.6166 117.495C15.5402 117.495 6.52886 108.096 6.52886 96.5443C6.52886 90.3257 9.15972 84.4648 13.7472 80.4661C14.7826 79.5633 15.1409 78.0665 14.6335 76.7624C13.6527 74.2415 13.1557 71.5957 13.1557 68.8985C13.1557 57.3464 22.167 47.9482 33.2434 47.9482C44.3198 47.9482 53.3311 57.3464 53.3311 68.8985C53.3311 70.6881 54.722 72.1382 56.4375 72.1382C58.153 72.1382 59.5438 70.6881 59.5438 68.8985C59.5438 54.3663 48.6501 42.4436 34.9329 41.5313C33.6895 39.3637 33.0363 36.8989 33.0363 34.3413C33.0363 28.5663 36.3978 23.5961 41.1866 21.4432C41.3717 21.3857 41.5531 21.3106 41.7283 21.2155C43.2119 20.6272 44.8185 20.3024 46.4972 20.3024C51.698 20.3024 56.341 23.3352 58.6144 28.2181C59.3641 29.8281 61.2229 30.4994 62.7657 29.7171C64.309 28.9356 64.9526 26.9974 64.2029 25.3879C61.6077 19.8143 56.6959 15.8082 51.0395 14.3892C58.9677 9.34384 66.7729 6.47948 73.0047 6.47948C78.5998 6.47948 83.1521 11.2268 83.1521 17.0626V58.9853C80.3609 56.676 76.8358 55.2916 73.0047 55.2916C71.2891 55.2916 69.8983 56.7417 69.8983 58.5313C69.8983 60.3209 71.2891 61.7711 73.0047 61.7711C78.5998 61.7711 83.1521 66.5184 83.1521 72.3542V150.229C79.2898 145.032 73.845 141.109 67.4402 139.314C65.7839 138.852 64.0795 139.875 63.6343 141.603C63.189 143.331 64.1715 145.108 65.8282 145.572C76.0282 148.43 83.1521 158.111 83.1521 169.114C83.1521 182.572 72.6543 193.521 59.7509 193.521ZM154.043 146.785C152.712 147.403 151.971 148.902 152.262 150.392C152.575 151.998 152.734 153.646 152.734 155.292C152.734 166.29 145.614 175.97 135.42 178.831C134.585 179.066 133.881 179.653 133.479 180.451C129.412 188.512 121.476 193.521 112.766 193.521C99.8626 193.521 89.3648 182.572 89.3648 169.114C89.3648 168.203 89.3242 167.3 89.2484 166.406C89.3221 166.129 89.3648 165.838 89.3648 165.536V58.5313C89.3648 52.6955 93.917 47.9482 99.5122 47.9482C101.228 47.9482 102.619 46.4981 102.619 44.7084C102.619 42.9188 101.228 41.4687 99.5122 41.4687C95.681 41.4687 92.1559 42.8531 89.3648 45.1624V17.0626C89.3648 11.2268 93.917 6.47948 99.5122 6.47948C105.744 6.47948 113.549 9.34384 121.477 14.3892C115.821 15.8078 110.909 19.8143 108.314 25.3879C107.564 26.9978 108.208 28.9361 109.751 29.7171C111.294 30.4989 113.153 29.8281 113.902 28.2181C116.176 23.3352 120.819 20.3024 126.02 20.3024C127.698 20.3024 129.305 20.6272 130.789 21.2155C130.963 21.3106 131.145 21.3853 131.329 21.4428C136.119 23.5957 139.48 28.5659 139.48 34.3413C139.48 36.8989 138.827 39.3637 137.584 41.5313C123.867 42.4436 112.973 54.3663 112.973 68.8985C112.973 70.6881 114.364 72.1382 116.079 72.1382C117.795 72.1382 119.186 70.6881 119.186 68.8985C119.186 57.3464 128.197 47.9482 139.273 47.9482C150.35 47.9482 159.361 57.3464 159.361 68.8985C159.361 71.5957 158.864 74.2415 157.884 76.7624C157.376 78.067 157.735 79.5633 158.77 80.4661C163.357 84.4648 165.988 90.3257 165.988 96.5443C165.988 108.096 156.977 117.495 145.9 117.495C144.185 117.495 142.794 118.945 142.794 120.734C142.794 122.524 144.185 123.974 145.9 123.974C152.554 123.974 158.633 121.379 163.271 117.115C165.054 120.296 165.988 123.888 165.988 127.646C165.988 135.908 161.299 143.42 154.043 146.785Z" fill="#FCE300"/>
<path d="M139.273 103.672C132.839 103.672 127.447 98.9369 126.125 92.6332C139.017 90.8786 149.007 79.3585 149.007 65.4427C149.007 63.6531 147.616 62.203 145.9 62.203C144.185 62.203 142.794 63.6531 142.794 65.4427C142.794 76.9948 133.783 86.393 122.706 86.393C117.263 86.393 112.167 84.1594 108.357 80.1032C107.156 78.8254 105.189 78.8043 103.964 80.0565C102.738 81.3088 102.718 83.3598 103.919 84.638C108.227 89.2241 113.792 92.0259 119.821 92.7058C121.248 102.567 129.427 110.151 139.273 110.151C140.989 110.151 142.38 108.701 142.38 106.911C142.38 105.122 140.989 103.672 139.273 103.672Z" fill="#FCE300"/>
<path d="M129.333 141.685C128.136 141.685 126.96 141.776 125.805 141.939C125.807 141.782 125.812 141.625 125.812 141.469C125.812 126.344 114.014 114.039 99.5121 114.039C97.7966 114.039 96.4058 115.489 96.4058 117.279C96.4058 119.068 97.7966 120.518 99.5121 120.518C110.588 120.518 119.6 129.917 119.6 141.469C119.6 142.209 119.562 142.952 119.488 143.686C109.851 147.759 103.033 157.619 103.033 169.114C103.033 170.904 104.423 172.354 106.139 172.354C107.854 172.354 109.245 170.904 109.245 169.114C109.245 157.562 118.257 148.164 129.333 148.164C131.048 148.164 132.439 146.714 132.439 144.924C132.439 143.135 131.048 141.685 129.333 141.685Z" fill="#FCE300"/>
</svg>
