<svg width="150" height="150" viewBox="0 0 150 150" fill="none" xmlns="http://www.w3.org/2000/svg">
<path d="M130.12 85.3951L101.018 59.5102C99.4301 58.0983 96.9996 58.241 95.5881 59.8277C94.1763 61.415 94.3184 63.8461 95.9057 65.2576L121.777 88.2691L95.9054 111.28C94.3181 112.692 94.1757 115.123 95.5878 116.71C96.3478 117.565 97.4028 118 98.4633 118C99.3721 118 100.285 117.68 101.018 117.028L130.121 91.1429C130.942 90.4128 131.411 89.3672 131.411 88.2691C131.41 87.1711 130.941 86.1249 130.12 85.3951Z" fill="#FCE300"/>
<path d="M54.0949 111.28L28.2229 88.2694L54.0944 65.2582C55.6814 63.8464 55.824 61.415 54.4119 59.8277C53.0001 58.2404 50.5694 58.0981 48.9821 59.5102L19.8794 85.3951C19.0591 86.1252 18.5895 87.1708 18.5895 88.2689C18.5895 89.3669 19.0591 90.4128 19.8794 91.1426L48.9821 117.028C49.7148 117.679 50.6274 118 51.537 118C52.597 118 53.6526 117.564 54.4125 116.71C55.8243 115.123 55.682 112.692 54.0949 111.28Z" fill="#FCE300"/>
<path d="M84.1916 57.6012C82.1613 56.9868 80.0115 58.1344 79.3957 60.1673L63.242 113.501C62.6262 115.534 63.7752 117.681 65.8081 118.297C66.1802 118.409 66.5549 118.463 66.9246 118.463C68.5749 118.463 70.1007 117.392 70.6043 115.731L86.758 62.3973C87.3738 60.3641 86.2251 58.217 84.1916 57.6012Z" fill="#FCE300"/>
<path d="M146.154 0H3.84609C1.72207 0 0 1.72207 0 3.84609V146.154C0 148.278 1.72207 150 3.84609 150H146.154C148.278 150 150 148.278 150 146.154V3.84609C150 1.72207 148.278 0 146.154 0ZM30.7693 7.69219H119.231V23.0769H30.7693V7.69219ZM7.69219 7.69219H23.0769V23.0769H7.69219V7.69219ZM142.308 142.308H7.69219V30.7693H142.308V142.308H142.308ZM142.308 23.0769H126.923V7.69219H142.308V23.0769Z" fill="#FCE300"/>
</svg>
