<svg width="47" height="109" viewBox="0 0 47 109" fill="none" xmlns="http://www.w3.org/2000/svg">
<path d="M25.1958 107.085L46.2686 74.684C46.7154 73.9928 46.9683 73.0279 46.9683 72.0055V50.4049C46.9683 48.9865 46.4794 47.6977 45.7208 47.1144C44.9579 46.5384 44.0686 46.776 43.4533 47.7265L23.7881 77.9601L4.12719 47.7265C3.50765 46.776 2.61838 46.5312 1.85976 47.1144C1.09692 47.6977 0.608034 48.9865 0.608034 50.4049V72.0055C0.608034 73.0279 0.865122 73.9928 1.30344 74.684L22.3763 107.085C23.177 108.316 24.3993 108.316 25.1958 107.085Z" fill="white"/>
<path d="M25.1958 60.2836L46.2686 27.883C46.7154 27.1918 46.9683 26.227 46.9683 25.2045V3.60412C46.9683 2.18569 46.4794 0.896866 45.7208 0.313654C44.9579 -0.262357 44.0686 -0.0247521 43.4533 0.925666L23.7881 31.1591L4.12719 0.925666C3.50765 -0.0247521 2.61838 -0.269557 1.85976 0.313654C1.09692 0.896866 0.608034 2.18569 0.608034 3.60412V25.2045C0.608034 26.227 0.865122 27.1918 1.30344 27.883L22.3763 60.2836C23.177 61.5148 24.3993 61.5148 25.1958 60.2836Z" fill="white"/>
</svg>
