<svg width="179" height="174" viewBox="0 0 179 174" fill="none" xmlns="http://www.w3.org/2000/svg">
<path d="M177.262 110.715C175.823 108.312 172.944 107.692 170.834 109.33L120.424 148.442L109.229 131.391C108.055 129.608 105.966 128.784 104.006 129.527C101.555 130.455 100.229 133.468 101.045 136.257L110.208 167.591C110.554 168.755 111.119 169.907 111.885 170.88C114.917 174.734 120.12 175.062 123.507 171.613L124.105 171.004L176.527 117.604C178.232 115.869 178.586 112.923 177.262 110.715Z" fill="#FCE300"/>
<path d="M92.7523 152.788H9.48883V10.5075H131.394V119.806C131.394 122.706 133.461 125.059 136.01 125.059C138.56 125.059 140.627 122.706 140.627 119.806V5.25375C140.627 2.3528 138.56 0 136.01 0H4.8721C2.3229 0 0.255371 2.3528 0.255371 5.25375V158.041C0.255371 160.942 2.3229 163.295 4.8721 163.295H92.7523C95.3016 163.295 97.3691 160.942 97.3691 158.041C97.3691 155.14 95.3016 152.788 92.7523 152.788Z" fill="#FCE300"/>
<path d="M107.744 32.9839H33.1382C30.589 32.9839 28.5215 35.3367 28.5215 38.2377C28.5215 41.1386 30.589 43.4915 33.1382 43.4915H107.744C110.293 43.4915 112.361 41.1386 112.361 38.2377C112.361 35.3367 110.294 32.9839 107.744 32.9839Z" fill="#FCE300"/>
<path d="M107.744 55.6931H33.1382C30.589 55.6931 28.5215 58.0459 28.5215 60.9469C28.5215 63.8479 30.589 66.2007 33.1382 66.2007H107.744C110.293 66.2007 112.361 63.8479 112.361 60.9469C112.361 58.0459 110.294 55.6931 107.744 55.6931Z" fill="#FCE300"/>
<path d="M107.744 78.4026H33.1382C30.589 78.4026 28.5215 80.7554 28.5215 83.6564C28.5215 86.5573 30.589 88.9102 33.1382 88.9102H107.744C110.293 88.9102 112.361 86.5573 112.361 83.6564C112.361 80.7554 110.294 78.4026 107.744 78.4026Z" fill="#FCE300"/>
<path d="M112.361 106.365C112.361 103.464 110.293 101.111 107.744 101.111H33.1382C30.589 101.111 28.5215 103.464 28.5215 106.365C28.5215 109.266 30.589 111.618 33.1382 111.618H107.744C110.294 111.618 112.361 109.267 112.361 106.365Z" fill="#FCE300"/>
<path d="M33.1382 122.712C30.589 122.712 28.5215 125.065 28.5215 127.966C28.5215 130.867 30.589 133.22 33.1382 133.22H70.4406C72.9898 133.22 75.0574 130.867 75.0574 127.966C75.0574 125.065 72.9898 122.712 70.4406 122.712H33.1382Z" fill="#FCE300"/>
</svg>
